<?xml version="1.0"?>
<svg xmlns="http://www.w3.org/2000/svg" xmlns:xlink="http://www.w3.org/1999/xlink" version="1.1" id="Capa_1" x="0px" y="0px" viewBox="0 0 512 512" style="enable-background:new 0 0 512 512;" xml:space="preserve" width="512px" height="512px" class=""><g><path style="fill:#FCFCFC" d="M482,186H333.52c-23.242-12.884-49.648-20-77.52-20c-26.68,0-53.239,6.541-77.52,20H30  c-11.05,0-20,8.95-20,20v240c0,11.05,8.95,20,20,20h148.48c22.97,12.74,49.4,20,77.52,20s54.55-7.26,77.52-20H482  c11.05,0,20-8.95,20-20V206C502,194.95,493.05,186,482,186z" data-original="#E6EFFF" class="" data-old_color="#E6EFFF"/><circle style="fill:#FCFCFC" cx="256" cy="325" r="156" data-original="#7FD5EB" class="" data-old_color="#185EC7"/><path style="fill:#1F77FA" d="M502,246v160H394.59c13.62-23.53,21.41-50.86,21.41-80s-7.79-56.47-21.41-80H502z" data-original="#A14F7D" class="" data-old_color="#A14F7D"/><rect x="422" y="146" style="fill:#185EC7" width="40" height="40" data-original="#3D4370" class="active-path" data-old_color="#08415C"/><path style="fill:#1F77FA" d="M356,46v60c0,11.05-8.95,20-20,20c-13.891,0-123.793,0-160,0c-11.05,0-20-8.95-20-20V46  c0-11.05,8.95-20,20-20h160C347.05,26,356,34.95,356,46z" data-original="#FED984" class="" data-old_color="#FED984"/><g>
	<path style="fill:#185EC7" d="M256,206c66.17,0,120,53.83,120,120s-53.83,120-120,120s-120-53.83-120-120S189.83,206,256,206z" data-original="#3D4370" class="active-path" data-old_color="#08415C"/>
	<rect x="216" y="126" style="fill:#185EC7" width="80" height="45.04" data-original="#3D4370" class="active-path" data-old_color="#08415C"/>
</g><path style="fill:#1F77FA" d="M10,246h107.41C103.79,269.53,96,296.86,96,326s7.79,56.47,21.41,80H10V246z" data-original="#A14F7D" class="" data-old_color="#A14F7D"/><rect x="50" y="146" style="fill:#185EC7" width="40" height="40" data-original="#3D4370" class="active-path" data-old_color="#08415C"/><path d="M463,295.938c5.118-0.508,8.99-4.792,8.99-9.938c0-5.53-4.452-9.99-9.99-9.99c-5.53,0-9.99,4.452-9.99,9.99  C452.01,291.911,457.075,296.526,463,295.938z" data-original="#000000" class="" style="fill:#373A46" data-old_color="#000000"/><path d="M256,236.01c-5.53,0-9.99,4.452-9.99,9.99c0,5.143,3.869,9.43,8.99,9.938c5.929,0.589,10.99-4.031,10.99-9.938  C265.99,240.47,261.538,236.01,256,236.01z" data-original="#000000" class="" style="fill:#373A46" data-old_color="#000000"/><path d="M386,326c0-71.682-58.317-130-130-130s-130,58.318-130,130s58.317,130,130,130S386,397.682,386,326z M256,436  c-60.654,0-110-49.346-110-110s49.346-110,110-110s110,49.346,110,110S316.654,436,256,436z" data-original="#000000" class="" style="fill:#373A46" data-old_color="#000000"/><path d="M299.574,247.267c-4.829-2.682-10.916-0.94-13.597,3.888c-2.682,4.828-0.94,10.916,3.888,13.597  C312.154,277.129,326,300.598,326,326c0,5.523,4.478,10,10,10s10-4.477,10-10C346,293.337,328.211,263.168,299.574,247.267z" data-original="#000000" class="" style="fill:#373A46" data-old_color="#000000"/><path d="M482,176h-10v-30c0-5.523-4.478-10-10-10h-40c-5.522,0-10,4.477-10,10v30h-75.981c-9.603-5.129-19.661-9.317-30.019-12.503  V136h30c16.542,0,30-13.458,30-30V46c0-16.542-13.458-30-30-30H176c-16.542,0-30,13.458-30,30v60c0,16.542,13.458,30,30,30h30  v27.497c-10.358,3.186-20.415,7.374-30.02,12.503c-23.771,0-53.56,0-75.98,0v-30c0-5.523-4.478-10-10-10H50c-5.522,0-10,4.477-10,10  v30H30c-16.542,0-30,13.458-30,30c0,9.862,0,229.357,0,240c0,16.542,13.458,30,30,30h145.981c24.495,13.079,52.096,20,80.019,20  s55.523-6.92,80.019-20H482c16.542,0,30-13.458,30-30c0-9.862,0-229.357,0-240C512,189.458,498.542,176,482,176z M492,396h-81.051  C420.83,374.122,426,350.226,426,326s-5.17-48.122-15.051-70H492V396z M492,206v30h-91.757c-9.439-15.107-21.174-28.585-34.714-40  H482C487.514,196,492,200.486,492,206z M432,156h20v20h-20V156z M166,106V46c0-5.514,4.486-10,10-10h160c5.514,0,10,4.486,10,10v60  c0,5.514-4.486,10-10,10H176C170.486,116,166,111.514,166,106z M286,136v22.662c-9.863-1.756-19.906-2.662-30-2.662  s-20.137,0.906-30,2.661V136H286z M60,156h20v20H60V156z M30,195.9h116.471c-13.54,11.416-25.275,24.994-34.714,40.1H20v-30  C20,200.486,24.486,195.9,30,195.9z M20,255.9h81.051C91.17,277.778,86,301.774,86,326c0,24.227,5.17,48.123,15.051,70H20V255.9z   M20,446v-30h91.757c9.44,15.107,21.175,28.585,34.714,40H30C24.486,456,20,451.514,20,446z M106,326c0-82.465,66.789-150,150-150  c82.847,0,150,67.172,150,150c0,83.086-67.398,150-150,150C173.096,476,106,408.777,106,326z M482,456H365.529  c13.54-11.416,25.275-24.894,34.714-40H492v30C492,451.514,487.514,456,482,456z" data-original="#000000" class="" style="fill:#373A46" data-old_color="#000000"/><path d="M316,96c5.522,0,10-4.477,10-10V66c0-5.523-4.478-10-10-10s-10,4.477-10,10v20C306,91.523,310.478,96,316,96z" data-original="#000000" class="" style="fill:#373A46" data-old_color="#000000"/></g> </svg>
