<?xml version="1.0" encoding="UTF-8"?>
<svg width="265px" height="265px" viewBox="0 0 265 265" version="1.1" xmlns="http://www.w3.org/2000/svg" xmlns:xlink="http://www.w3.org/1999/xlink">
    <!-- Generator: Sketch 52.5 (67469) - http://www.bohemiancoding.com/sketch -->
    <title>wink</title>
    <desc>Created with Sketch.</desc>
    <g id="Icons" stroke="none" stroke-width="1" fill="none" fill-rule="evenodd">
        <g id="wink" fill="#1F77FA" fill-rule="nonzero">
            <path d="M132.860331,264.363231 C205.761918,264.363231 264.860331,205.264818 264.860331,132.363231 C264.860331,59.4616445 205.761918,0.363231464 132.860331,0.363231464 C59.958744,0.363231464 0.860330934,59.4616445 0.860330934,132.363231 C0.860330934,205.264818 59.958744,264.363231 132.860331,264.363231 Z M181.497,83.998 C190.333,83.998 197.497,91.162 197.497,99.998 C197.497,108.834 190.333,115.998 181.497,115.998 C172.661,115.998 165.497,108.834 165.497,99.998 C165.497,91.162 172.661,83.998 181.497,83.998 Z M83.583,88.997 C83.583,88.997 83.584,88.997 83.585,88.997 C94.578,88.997 104.575,94.236 110.325,103.357 L96.83,111.786 C94.027,107.341 88.664,104.633 83.664,104.633 L83.664,104.608 C77.664,104.608 73.218,107.25 70.414,111.696 L56.861,103.365 C62.611,94.242 72.59,88.997 83.583,88.997 Z M44.513,182.309 C42.227,182.309 39.924,182.056 37.64,181.538 L41.177,165.934 C46.304,167.094 51.67,165.482 55.536,161.617 C59.402,157.751 61.016,152.382 59.855,147.254 L75.459,143.719 C77.365,152.131 75.679,160.797 70.953,167.909 C87.017,189.467 113.9,201.25 140.807,198.139 C163.068,195.572 183.656,182.746 195.88,163.831 L209.318,172.515 C194.527,195.404 169.6,210.924 142.641,214.033 C139.181,214.432 135.722,214.628 132.279,214.628 C103.832,214.628 76.484,201.253 59.055,178.686 C54.556,181.059 49.578,182.309 44.513,182.309 Z" id="Combined-Shape"></path>
        </g>
    </g>
</svg>