<?xml version="1.0" standalone="no"?>
<!DOCTYPE svg PUBLIC "-//W3C//DTD SVG 20010904//EN"
 "http://www.w3.org/TR/2001/REC-SVG-20010904/DTD/svg10.dtd">
<svg version="1.0" xmlns="http://www.w3.org/2000/svg"
 width="754.000000pt" height="754.000000pt" viewBox="0 0 754.000000 754.000000"
 preserveAspectRatio="xMidYMid meet">
<metadata>
Created by potrace 1.11, written by Peter Selinger 2001-2013
</metadata>
<g transform="translate(0.000000,754.000000) scale(0.100000,-0.100000)"
fill="#000000" stroke="none">
<path d="M3612 7500 c-41 -11 -99 -33 -130 -48 -66 -34 -2652 -1523 -2758
-1588 -97 -60 -194 -164 -239 -258 -68 -142 -65 -39 -65 -1842 0 -1591 0
-1633 20 -1708 36 -140 121 -271 228 -349 58 -43 2778 -1612 2847 -1642 149
-66 341 -66 490 0 69 30 2789 1599 2847 1642 107 78 192 209 228 349 18 71 20
112 20 518 l0 441 -29 -53 c-170 -307 -462 -505 -856 -578 -154 -29 -519 -27
-670 3 -307 62 -554 200 -715 400 -36 44 -80 106 -98 136 -78 130 -143 317
-173 502 -20 121 -17 467 4 582 96 512 392 852 861 987 287 83 684 80 965 -9
296 -94 525 -273 667 -523 l44 -77 0 505 c0 563 -2 586 -65 716 -45 94 -142
198 -239 258 -106 65 -2692 1554 -2758 1587 -129 67 -289 85 -426 49z m228
-2230 l0 -280 225 0 225 0 0 -345 0 -345 -225 0 -226 0 3 -512 c3 -509 3 -513
25 -555 49 -91 149 -129 321 -120 l102 5 0 -328 0 -328 -29 -5 c-98 -20 -274
-29 -450 -24 -549 16 -803 152 -898 482 -15 54 -18 131 -21 723 l-3 662 -169
0 -170 0 0 345 0 345 170 0 170 0 0 280 0 280 475 0 475 0 0 -280z"/>
<path d="M5798 4360 c-115 -35 -213 -167 -258 -351 -28 -110 -38 -357 -20
-495 28 -229 114 -388 240 -448 68 -31 198 -30 263 4 103 52 176 164 220 338
19 76 22 114 22 297 0 236 -16 325 -77 454 -41 86 -125 171 -192 194 -52 18
-151 21 -198 7z"/>
</g>
</svg>
